/* XPM */
static char *db5613ed068c45f9e422d8aa142d7dc2K2xtVwo5mn6UlqDY[] = {
/* columns rows colors chars-per-pixel */
"64 64 17 1 ",
"  c #AB664B",
". c #AE654A",
"X c #A66042",
"o c #B27154",
"O c #AA6245",
"+ c #B36D52",
"@ c #B16B50",
"# c #AD684D",
"$ c #AE6A4F",
"% c #A96449",
"& c #AF6C51",
"* c #B57356",
"= c #B1684D",
"- c #B7775C",
"; c #8F5941",
": c #643C2C",
"> c #27150E",
/* pixels */
"------***+---*&o&-o---o-&$*--oo-*--o@+*+$##@#$+o**o$o*o$o$&+#%==",
"o--o**+o@+--ooo-&-------o--*oo*o-o$&&+*-**$+**-$#&o*o$+-*&$oo@$ ",
"@----oo--*-*&o@@+*------o--;;;;%@&%o*@&&$-++#O@ *o##o*@%#$$&oo@+",
"+o---oo-*++&&*o@+&*o-*-o**-;:;;;+*:;$@*o+*# ##& $+$ $*+. $##o*o*",
"-oo---*o$+oo&+*o*+*o-o-o---$>$;%-$:>#+-*@#$#+*$o#$$@&#=**o##*-o$",
"-*---*-**-**o+-o*--*o&++*--%>;:o#::>;$$&$$*@++%**o$$o+# *+$&**$ ",
"&&--+&oo*+&**---o-***+#=o*oX>X;%%:;:: $&-*+#** #$o+#&*+###&o@$$#",
"-o&----$o-+*+$--**$+*-..-o$;>;;::: ;>;+$$*$O ##@+$#$*o&&&%#@$#=#",
"--o-**-o&+**-**o--o*oo*@o-$;:;;;;;+%:;-*&o #&+ &&&*o%#* $#oo*&+$",
"o&$&o*--ooooooo*&o*-*&+$o*$@oo-o&o$$@&&%&o*#+  @&&++% o$# +&& $$",
"&& #+o-oo*oooo*o--o&&o--&&$$$&oooo##$&& &&o#o##@oo&@# +*&$o&$%&+",
"**$$oooo&+o**ooo+*# +*o&*o*++o&&oo$$$$+o&&#+@+ &$o# # &o&$&$#O#$",
"&o$&*oooo+o**o++@*# +o&$&$oo**&&&$&++&&&$o&o# %&%&%X ###o#&$&%# ",
"$&$@oooo*oooo$$@*-*ooo** ##&&&&&& #$&+ %##&#@#@##o X#&& *$&+*## ",
"$&$+&$o@o@&oo$$@&o*-*&+$$+&*o#+&+ #%$o##$ # +++ @+  &o*&&%#$+  O",
"@$&+# +#$#&oo&$$-o&o&&*& o&-&%&&##+$$o&&$&&@%@#%$#O $&*oo $&o# O",
"%$+$-+$@&+& *&$+$&o&&**&&&&&- &+@ $#$#&##&+o& %@O   #%#o#&&#$$ %",
"$+&#-+@@+o++*o$&#&**$$&##$##&%&+@ #%$#&$ $$# %X%##  &o+& &&#$& %",
"&+& +&@++o$o$+$&-*&$% +*&&&$+ &+%#@ #%&*%###$$#  #@##@+#%#$#&& %",
" +o$$#$*@$$+$$$$*&&*+&$$$&&$@##$o$%X**+ XO% &&##  $#O $%%%%$& %$",
" +o@###@$#+o*&@#o&o-*$%O$&&$$$ $$&+%$   # %$o$% @%O  ##%% ## % $",
"@@$$#@.O@$+$o$++*&&& %&*&&$  @$+## O$  %+# +*$ &#%%   ##%++%%#$#",
"+@#$#@.O++&$&$$+&$$&$#&*#$ %X$% %%&%%O&&#%X #  @%#$  % $%$$%%#$$",
"*o@+ +@=.+&*o&X.o$#&$$ %$&@ %@X%& $%%#+## OX% #o @$%#$ % %X $  o",
" +.@+#@ O.X--$o*$# @+$#&@$#$&$ &+% @  $  ##..#.O%+###%#% %OX%% +",
"*o*==o#@=*#+&&o$$&&@&&$&# ##%% &%O #X%$##%XO%.@*#@ %#  X@$%% %X%",
"#o==@#$##+#%%&#X&o& % $@o#$&$$&$%#+$% +&$#  %XO##+# ### # % # %#",
" *.@+%+#&#$$$+  &o+ %% &-$&*+++%#&o$%%$ %#$ %%%XO# %OO%# #$#%XO#",
"+@+..# &o &@+o  $&o+@ %$&#&o# $%&&&$  #  $$ % ##O  OXXO X $#%XX#",
"#@=.##$$$%$%@+ %&&&$$  @&#$$ #$#&$$#$&&$o$## %%## %X% XXXO% # %%",
"%*.+*$*$@#@ ++&%$&#% #$o+&##$&&$%# % &$##%%##...#OOX% XX%  ..OXX",
"###.#@#$+#$$*$#% $@#&o&$ @&$#  $%++% &&###%O.#.X=.=.#=O=X%.OOO.@",
"*o #o$#+$o& %*@ O=  %$&*& #$X#%&o%#oX+ ## XO# X%# X%%X %OX#XXOOX",
"++&&$##@&#$$o-@%O. # $&+ &O$%%&$*$OXX  $  % +$% XXX# %#%  %XOOXO",
"**-o&@+#&%$$*$ ==.@@$$@$ %$%%+%o+@%X#% $  %#@$ #%%%# %&& @XX#OXO",
"++$#@+ O$%&&&%%@#X##%X.XX+%#@$$&#&#$+%# # %%   # %OOXX   @XX XXX",
"#@%%+$O%  &*+@%.+#o+$.+#%+ $*#&$###o%X$ $   % ### ###$$  @%%XX X",
"#@##@.%@ $&+ $%## $ %%$#  @#+& &# $oXX#O#%% % #%%XXXX  %@$#%X%@ ",
"..=.XO##$$& O%.@#&$ %$&$ +X$+X*$ O&$#%%O#%%%% #%#O OX$#$$  O%###",
"*.==X.*%*$$%@$.%#+ %%&# &%%%$X&& X#X$%%=o#%%%#$   +$ $%%%%OX$$X ",
"..==.XX+@=.O=.$%.   #+@ O.  $%O $$%  & $# @ O##X#%O.O=XXXXXX%+%$",
".+OO.O+=O.OOO.##% $##&& X%$+*$%O  %&$$%$#O#$  % # #..@##.X# #&% ",
".+O.==+O=.XO.@#% $+$ $+$%%$+&$# %% +$ %&#%$$  %#%O#OO.$#OX# #$%$",
"# ##@$XO+@O..+OX###%% $$$#&&%%&& % $  $+#@+.O  %OO#XXX %OX%% $#+",
"@# % #X%#=@@O#X.$#   $&#+$&& #$%$ # % @$#@@OX %   @XX%# .O% ## $",
".+O.==@XOO@#%=O=o&@++o*&*&##$@#%$#@ % $% %.OOOX# %$OX # .. $$ %%",
"O@O#@.@O.X#O @.=&&+@ #&&&&#..# %$%$  %$%%%OO#.X %X%%X %%OO%$$%% ",
"=.==.OO+.O+XXOX.&++#XX&*X$@#.OO#$X#  O@#X##O#@%O OO X#OOXO%$#% @",
"@=*.XO=X# +#X.+X +O## %$*@O.O#$oo&$+#%X#.%%XX#%$O.$#%*% .#O.=@O.",
"O=@O.O=+.%++++=X##O@+  @%O..$%$&# %##.X .XXX% O#X@$&&%+.X#XXX$ X",
".++O@OX= % $+oO.# %@+.##XX.O X $% #..XXO@O%#$#%&#*%#&X*#$$  X$$$",
"=@OX@.O@$%% %@%+% # =.@X#=.@ $$oX +..X.=#XX%%% &O %+$#XX@%O$O% $",
".O..+@===.=+ +$$% #%#.@XXOO#% %% @+OOX..OX%%O%$$#% %XOX=OOO.XO..",
"=#++@.= =O.=.++%#  $+#=#+=@#@ #%$@.XOOOXOO $  @   $ $O#.OXX=...=",
"+@@.. o*..XO..+ .= +o# @+=@.#%$$X%XXO. #OXX# %$%+@%O=O+.OXX.OOX=",
".@+=*+$%X+O.+O@+O+#@&$ #X..@#@&oO$..XXO#@OX@#%@%O$ @OOXXX$OXX OO",
"X=@O=OO.XO.=% *O.O.=+=%O.O.O@X  X@..OO@#@.OOO=@.%  -O$$O$ X %X$$",
".=#.=...=O++#+.=X.++@=.XO==O=#@ ..XXX%+%OO#=.OOO @X%#$O.X%%OO $O",
".==+@=OXO.=#.@+O=@=OXO=+O+=#=+@ +=O..@-#XO..OXO.  %@+# X#XXXO#.O",
"O.=+=+.XX+=OXO@X..O#.OO==+#$# ###..@% o%..XXX..##%% #O$ @XOOO..=",
"X...X=@=.O=OX.O.OOO+=.X.@+$  X#@$.++..+ .=OXO.OXO=OX+XX#O.+.X.  ",
"O==OX.=...=..===O..=X#.=#*+% %@@.XO.XXOXO=.OO.OOO.OO+  X.O.OX  %",
"O==...O.$*===O.XO..+ @..#o#@#@@@=...O...O.OO.OO@+O..X *O=OXX% &$",
"==.O+..+@XO=+=X..OX+@+O.$@O*++ @.O..OOO.OOO.+OX=X=... $ X=$$#$-&"
};
