/* XPM */
static char *_9d350fe79374547d3797776626b4914vWVr03ia66OUqMGP[] = {
/* columns rows colors chars-per-pixel */
"64 64 174 2 ",
"   c #A2583F",
".  c #A65E45",
"X  c #A95E45",
"o  c #A55F48",
"O  c #9F614D",
"+  c #A66047",
"@  c #A96147",
"#  c #A6634B",
"$  c #AA654C",
"%  c #A7694F",
"&  c #AC684F",
"*  c #B0654B",
"=  c #B0694F",
"-  c #A56750",
";  c #AB6750",
":  c #A66952",
">  c #AD6B53",
",  c #A66D58",
"<  c #AD6F58",
"1  c #B16E55",
"2  c #B06F55",
"3  c #B16F55",
"4  c #B06E55",
"5  c #B26E54",
"6  c #B06D56",
"7  c #B06E56",
"8  c #B16E56",
"9  c #B06F56",
"0  c #B16F56",
"q  c #B16E57",
"w  c #B06F57",
"e  c #B26E56",
"r  c #B36F56",
"t  c #B26F57",
"y  c #B36F57",
"u  c #B06D54",
"i  c #B46F55",
"p  c #B16D54",
"a  c #B16F58",
"s  c #AF7055",
"d  c #AE7056",
"f  c #AF7056",
"g  c #AE7057",
"h  c #AA715A",
"j  c #AD7058",
"k  c #AF7058",
"l  c #AE7158",
"z  c #AF7158",
"x  c #AE7059",
"c  c #AF7059",
"v  c #AE7159",
"b  c #AE7259",
"n  c #AE715A",
"m  c #AE725A",
"M  c #AF725A",
"N  c #AE735E",
"B  c #AE715A",
"V  c #B07056",
"C  c #B17056",
"Z  c #B07156",
"A  c #B07057",
"S  c #B17057",
"D  c #B07157",
"F  c #B17157",
"G  c #B27056",
"H  c #B37156",
"J  c #B27057",
"K  c #B37057",
"L  c #B07257",
"P  c #B17257",
"I  c #B37257",
"U  c #B57057",
"Y  c #B17057",
"T  c #B07058",
"R  c #B17058",
"E  c #B07158",
"W  c #B17158",
"Q  c #B07159",
"!  c #B17159",
"~  c #B27058",
"^  c #B27158",
"/  c #B37158",
"(  c #B27059",
")  c #B27159",
"_  c #B37159",
"`  c #B17258",
"'  c #B17358",
"]  c #B07259",
"[  c #B17259",
"{  c #B17359",
"}  c #B27258",
"|  c #B37258",
" . c #B27259",
".. c #B37259",
"X. c #B27359",
"o. c #B37359",
"O. c #B2715A",
"+. c #B3715A",
"@. c #B1725A",
"#. c #B0735A",
"$. c #B0725B",
"%. c #B1725B",
"&. c #B1735B",
"*. c #B2725A",
"=. c #B3725A",
"-. c #B2735A",
";. c #B3735A",
":. c #B2735B",
">. c #B3735B",
",. c #B47158",
"<. c #B47258",
"1. c #B47259",
"2. c #B4735A",
"3. c #B5735A",
"4. c #B5735B",
"5. c #B2745A",
"6. c #B2745B",
"7. c #B3745B",
"8. c #B4745B",
"9. c #B5745B",
"0. c #B7755B",
"q. c #B6765B",
"w. c #B2735C",
"e. c #B1745D",
"r. c #B2745C",
"t. c #B2755C",
"y. c #B3755C",
"u. c #B3745D",
"i. c #B3755D",
"p. c #B1745E",
"a. c #B3755E",
"s. c #B3765E",
"d. c #B2765F",
"f. c #B2775F",
"g. c #B4745C",
"h. c #B4755C",
"j. c #B4745D",
"k. c #B5745D",
"l. c #B5765C",
"z. c #B7775D",
"x. c #B4755E",
"c. c #B5755E",
"v. c #B5755F",
"b. c #B5765E",
"n. c #B5775E",
"m. c #B4765F",
"M. c #B5765F",
"N. c #B4775F",
"B. c #B6765E",
"V. c #B7775E",
"C. c #B6775F",
"Z. c #B1725A",
"A. c #B5785F",
"S. c #B7785F",
"D. c #B6795F",
"F. c #AF7660",
"G. c #AF7861",
"H. c #B17761",
"J. c #B27760",
"K. c #B47760",
"L. c #B27660",
"P. c #B37863",
"I. c #B57960",
"U. c #B67860",
"Y. c #B67960",
"T. c #B77B60",
"R. c #B67A61",
"E. c #B47962",
"W. c #B47863",
"Q. c #B57963",
"!. c #B67A62",
"~. c #B47B66",
"^. c #B47A62",
"/. c #B87B63",
/* pixels */
"9./.n.S.>.n.3.I i 4 K.K.%.v > v < v I 4 e.L.e.>.> > 9.n.S.I f n.>.>.9.< & I > 4 > & > & & 4 u C U u f > C P P f f % u C > # > & ",
"4 n.>.< 2.>.> >.y > n.Q.< U e.I u I >.~.Q.Q.f n.< >.N U C I f 2.n.< > >.> > >.I >.>.> f I u I u & C f f C & I P I f > > > I & = ",
"I >.S.>.>.>.> n.>.k.>.k.4 < > p 5 I 2.Q.6.>.P.6.h 9.n.< u 9.2.> 4 > N e.u 4 < > > v U u & @ I # I C & < C s C & & > > I I f & f ",
"& t 2.2.n.t >.< 4 >.t & > n.u p > < U > Q.I 6.< >.n.u 6.6.I u I u >.e.>.& & < >.>.I & $ > $ I & > C & # & P > = & % & > > I 6.6.",
"n.K.4 2.n.2.< e.4 4 4 I 5 p y t < i 4 >.U >.9.>.9.I >.n.n.t > 4 I 6.>.> & 4 >.>.> & u & f d > C & & > & I > = u > b & > f.b >.& ",
">.i 2.n.2.%.t < 4 >.t 2.4 u e.n.6.I 2.>.> & & 4 < < n.e.> < I u & & < v u & > > > 4 I p f d $ s P C f < & I & & P 6.> > f.I.& & ",
"%.> >.B.t t %.< y t < 4 >.k.n.< I >.4 >.e.9.= & I < < 4 > >.>.u & > < >.> & > & >.>.u & f < $ s > f s & < P > > & & & f > u & & ",
"L.t , 2.2.n.e.> t 4 >.4 4 > 2.e.< n.& < I I & & I v > & >.>.> & < < 6.>.> I u > > I > @ & > & > s & & > s < s > > & % s > & > > ",
"n.%.< 2.4 L.N < 4 > >.e.4 >.>.v Q.v f >.v I I 4 >.9.> < > < < & t >.> > # & >.I , < > & > b $ > > d f f $ & d & & > > b f > f > ",
"u < > > U e.%.>.> < < t >.>.v >.< v >.>.> < > > > u u p I f I f , I u & > > v # 4 4 < > : & & 6., > > > $ & b > > % > > > & > & ",
"< > # > > < F.v i t %.< < 4 >.4 >.>.U u 4 e.Q.I f I > & > f f < f > & & > > % > > < > > 6.& $ & d d 6.s % # s b & % v s $ & % 4 ",
"< L.> & < f < t u u < < >.>.4 t 4 4 > & u > < u f < f 4 < >.> > v > & > & > >.> < > v > & s & s : > & # & & b > s % > > & # & > ",
"p u u > 4 2.2.y < > >.e.4 u I > v v > & > >.> < > > u I %.< > 4 < < > > < > > > > h & p & & & > : d # # $ & & & > & > & f # & & ",
"& u ; p k.4 p 4 >.I > v < = > 4 I f.> 4 >.4 >.4 & > # < < & > > & & ; % > > p # % > > & < & u & & > & + & , % & P % d s > > & # ",
"> p = p 4 p = 4 4 p > >.I & > > > e.%.L.%.> < & & v > F.> > < < > & ; : > > & & , # & ; p u & & > s & % & f N > d # > & > & $ $ ",
"> > 4 i % & p ; & 4 > u I 4 & > >.N > 4 > < < 4 & < v >.> # > > & > > & > v , < > > u > $ > u # > $ # % & b b > > , & > b & & @ ",
"# ; i & %.4 > u > 4 > & i > u u ; 4 < > < 4 < > > < & > < ; > > > & > & & > > : & > < b & $ & & # % $ & & % $ d : s & & & > # $ ",
"; < ; u k.> p $ 4 < u p t > > u ; > t t & & < > : - % > < # > < > $ & # & & > > & > > & & $ # % % > $ $ > s f d $ & s % & d $ # ",
"< a ; : > p & i t 4 > < 4 2.> & k.< < , # ; u > , 4 > & , ; > > & ; $ > & & < < # & # & > & # & $ & d % % > s $ # & & % % > # $ ",
"# t N & ; > p u > & < > > ; # u %.t > < t & p > ; < > ; > & # < > > # & , < > & # # & & s > % & $ $ & % $ $ & $ # # $ & s & % & ",
"& u 4 < > ; > > ; > p 4 < > > > < > t t >.> o # , = & p % > & & > , > & & & & & & & # > > & & & & $ # $ # & & $ # % % & & # & % ",
"& ; = 4 % & $ $ u > > t < & 4 < >.>.; , & ; > v 4 ; > $ # < % > % & & o u $ & # > & & I 6.& % & & & $ & $ % & % @ > d # # $ # > ",
"i i & & > > & X u t > > > > & > < # > t & & > < # > ; # $ ; X > # # > $ # # > > & # . & & & # d % $ % & # % & % # & & % & % > , ",
"< < p p & p & > $ 4 u t < < X & < > & > > > # ; > t ; $ ; : # # u & & # # & < ; & & # # # & & s & > & & & % $ & & # # # $ : & > ",
"; < > & p < & & X & # 2.k.> < < & p ; > t : , p > & > , > > & , p # > & # & ; ; & & & & # & & # $ d $ & % % # & > # + # # = # C ",
"p >.i & u u & p p ; ; > < 4 4 > p > & > 4 ; > > > & & ; ; o ; > # # # & & # > & & & # # & & & C > > & & & & % + > & % % & @ # # ",
"= p = u p $ > - : y ; = # ; ; # , %.> & # & > < < ; & > > ; > u & ; < # @ % : > & & $ & # @ @ & % > = & # & > % & % # # # & # & ",
"; y ; > $ ; u ; > & & ; > t & * > < 4 $ ; & # > v 4 < > < < > # & ; >.> # . > > % & & > # @ $ # # & & # # $ $ $ # s > : % @ # & ",
"> p u > X 4 ; > > ; > u %.> $ $ ; 4 < > & & $ > < % > < ; & & ; > < ; u & % : # & d $ $ $ $ % % $ & $ # @ + # & # # % & # # # % ",
"> t X & u $ ; > p # u # > 4 & ; > > < p = # > > < # 4 > % & , ; > , ; & ; > , > > > % % & + $ & $ $ + $ # $ # # + # $ & > % # # ",
"# y > p p u %.> ; & p ; > >.% # p $ & # ; > 4 > > & > & & > > % # ; % # ; > > & & $ & $ $ % $ & $ $ $ + # %   + # % $ $ @ # @ # ",
"= $ & ; $ u & > t & ; $ >.; ; # & > < ; p > , > & < > ; & ; % & # > > & # > > ; & & $ + $ = @ + > $ % % * & & & # # $ @ @ @ & & ",
"t y ; ; > u > t > < u $ # %.< X $ $ ; & # ; > >.& ; ; & # & $ , 4 # & p # p & & & & X $ & & . # & & # # # @ & # # # & . . @ # @ ",
"%.> % t > $ ; > > & ; > t < > & X & $ $ > , > > ; > # $ # # ; < k.> # # X # ; > & # & # > & & & # . # $ % # % # # & # + # # . @ ",
"t %.2.> %.t u ; > & ; & %.> $ ; ; & > > & ; ; > # > & & ; t # > > > & . # & > ; # & # & < & & & # @ $ $ & & % > & > @ + & # X + ",
"4 > > u ; & ; X ; . < > u # # & ; X t $ $ $ X # # > # ; > & < > > > > > < # & & > & # & $ & & & & # & # + + & $ & > + # + # + . ",
"& p X & > u o ; > ; 4 t > u # ; u ; 4 & $ $ > ; # ; > > >.# > > ; & ; > & # > & ; $ & & # & $ & & @ & & $ : > % & & # & @ . & + ",
"$ = = & > $ ; ; # & > > $ $ ; ; & & ; > $ # , p & ; & & p > > & ; & < < # # $ @ > # # $ ; & # % $ # @ + # & : # % > & # # % % & ",
"& ; ; = X X ; > > > t # $ o # u > ; & > $ ; > ; & u # ; > # < > & o u & $ $ # $ & & # # # & & # $ # % # $ & # & % & $ + o % & & ",
"u = $ ; X $ u # a $ p # ; < ; X ; 4 ; # # > ; : > # # ; & # & > & # $ # & # & & p ; > # # & & & $ & > C # : $ # # # o # > & + & ",
"$ * ; 6 # X X u u # p X & $ & # & # ; ; & t ; ; # # $ & > # $ # ; > o : & & & > & & ; > . % & # % $ $ @ $ & # # #   + # & & % & ",
"; t X X & $ < ; & ; X # $ $ > ; $ $ ; & # u v ; o & = > %.> # # & # < > & ; & & & # > ; # & & # & & & $ # = & & X # & # > > # % ",
"* = X $ & = ; ; & X X $ X ; ; # $ > p ; , & : > # X u , > > # > & # ; > > # ; < > # > > > . & & @ & # # # * s & $ X & & & , & & ",
"; ; > $ p > X X ; t ; X > t # X ; $ & $ # & u ; > > ; ; ; # > ; # & # & > > ; > & > < ; X > # # # # & # . # & # X . . & # % & f ",
"; ; $ $ # $ # $ = > = ; # $ X $ > > & & X > > ; > > < > # & > # ; ; ; & X # ; > ; & 4 # X # & > & @ > + . # & & & & # % > > # = ",
"= p X * > u > X $ X > ; ; ; $ $ > > & > >.t < < t > ; > & > ; # > : = # ; & % & & & # X ; ; X # $ % d + @ & $ & $ # & & = # $ # ",
"$ & X $ = $ ; X $ # & $ # p # & 6 < > ; = & > > < ; ; # > $ # ; > # ; > $ o ; o . & # # & ; o & # @ # + # # & # + # & > & & $ & ",
"$ * $ = $ X ; u # ; = X # # X $ ; < 4 = # # > < # & u & X $ o & ; # & $ ; # > & # : $ $ & & & # & # # % @ & # # # @ # > & # & > ",
"= = t & X X > X * ; , & X ; u X $ p X & > $ $ ; t 4 X ; ; $ > u , %.& ; u # X & & @ X # # # & & @ $ & & # v & # & & @ & & & & # ",
"$ ; 4 X * $ ; = ; # t u > 4 > X ; = $ u ; $ > > $ X $ # ; # ; , u # ; ; $ # # $ @ $ # @ # & # ; @ $ s d > # > & # # # + # % & + ",
"$ p p $ $ $ X & $ # u ; ; t ; $ & $ # = t & ; ; # o & X & & # > # # ; $ & # # X > # # @ p $ # t & f # : > # 4 & & I & # # f % % ",
"= = X X > = X = & * X ; > a # u $ # ; $ > & & o $ & ; > ; ; > u X > < $ # X $ > & # @ = $ # ; & # & & f & $ X # > # + > # # > < ",
"# $ > * > u u ; $ & > ; & > > & $ ; = = * $ u X X ; # & $ ; # # & & > # & X # $ @ . @ # # & > & # $ # X # X . $ $ # # # X # $ @ ",
"= = u = 6 $ = ; ; & X = ; > u = $ ; # & > = $ & u ; u $ $ ; ; ; > u $ X # X # X # # & & # & & & & & & % & # & > # . @ & $ & @ & ",
"t = ; & = ; i p $ X $ X # = u # ; p ; u < ; $ u u > ; & = # : ; # # X o X # > & X # # & > # & # & > # & & . & # # # . + # # . & ",
"; u u = t 6 ; $ X = X $ u X > t $ = ; > > < $ ; X # ; u $ 4 < > # ; ; & . # # ; > # . & & X < # # > & & # X # X + & # + + @ # # ",
"# = = $ * X > X X * # ; $ ; u ; $ X ; ; u & = X $ # & # > X $ $ X u & & X # 6 ; > ; # $ X p ; & # $ & I # u & # > # # & + # u & ",
"# = $ ; $ ; X * * X u u = > = $ X $ = i ; ; # $ X = $ X & = $ & $ # X X X ; u # X X $ ; X X $ # > & # * & & @ & # @ $ # # $ $ @ ",
"; = = = q u * X X $ 5 $ $ = p X * u u X X $ & 5 $ = p = > ; 4 ; u ; $ $ $ > %.; X $ $ # ; # X & $ & # & u & @ @ $ +   @ . > & & ",
"X $ u y $ = X $ X 5 * X X $ ; X = $ # $ $ * $ $ $ u & & & = & ; = ; $ $ # > t $ $ # X X . . & & & # # & & & & $ = # + # . & @ $ ",
"X = = * X u 6 * X o > * X $ * X X X X y $ # X & 4 a ; $ ; # & * # > ; q u X u # & & & . @ & @ @ @ & X # & # & $ @ $ C $ + # & > ",
"X * * o X * = ; = > > X $ = $ = X ; ; $ $ = $ > > a u $ $ X y p ; X * $ X X ; X @ & # X # * # $ $ & @ @ = $ # # @ $ # # @ $ # # ",
"* * > = * X $ * ; 6 = = * X X X X * $ > = $ $ & ; p > = > p $ p & X = X $ $ $ $ X & @ $ $ $ @ = = $ @ & # & I @ & # @ @ # & & > ",
"; = * X u = $ u u X X = u * X $ * X X t > u * X p ; ; >.u = = ; $ $ $ * $ X X = $ @ @ & = $ @ & $ @ $ & # & & * @ & $ & & > f.> "
};
