/* XPM */
static char *a84441a373b34660db548eb2ddd1e01f7raNqpSQluiE5BhY[] = {
/* columns rows colors chars-per-pixel */
"64 64 11 1 ",
"  c #807F7A",
". c #7D7B77",
"X c #7B7974",
"o c #84827D",
"O c #777570",
"+ c #797772",
"@ c #74726B",
"# c #888681",
"$ c #957169",
"% c #A76157",
"& c #CF3F2F",
/* pixels */
"#oo###o##############oo#oo#oooo###oooooooooo####ooo#############",
"#o###oo##########ooo#ooooooooo####oooooooooooo#o#oo#############",
"##ooooo#oooooooo#ooooooooooooo#o##oo  ooooooo oooooo############",
"o##oo###o##ooooo#oooooo oo  o$$$oo$$X   o    o oooo#############",
"o##ooo###### oooooooooo o   $%$%o%$$%$oo     oooooo#############",
"oo#ooo#o###o    oo#oooo     %&$% &$ %&oo  o o ooooo#########oo##",
"#oooo#oo##o#o#ooooooooo   oo$&&%$&o .&o   oooo oooo#############",
"#oooo###oo ooooo#o   oo  oo#$$%&$&o $& .oooooo    oo###o#######o",
"ooooooo#o ooo#####o  oo oooo%%$& %%$%%o  oo o#oooo########o###oo",
"ooooo   o    o#o oo  oooo oo$$$$o$$$%oo  oo oo o  ooooo#oooo oo ",
" ooooooooo   o#oo##oo  .o  o o oooo ooo ooo o  ooooooo##o#oooo  ",
"  ooooo o    o#oo####oooo    oooooo oooooo     oooo#oooo#oooooo ",
"oooo  ...X.  ooo##o###oo  ..    ooo  ooo     ..oooo#oo  oooo   .",
"o     ..XX.ooo###oooo   o       oo     .    o .   o#oo   o o  .X",
"oo .    .. ooooo .     o     ..    .     oo oo    oooooo   oo ..",
"oo ....... o  oo   o .. .....XX...... o  o .  .. ooooo  ... o   ",
". o  oo o   o  o ..... o ..  ... ++. ..O...  ..X.o  o...   ..oo ",
"   .. oo     o oo     .  ... ...@O  +@X..X+X    .o   ....X.  .X.",
"o ...  o     o        ...  ..  .XX  XOX X+XX... . . .. . ..  .. ",
" .X. .. .  .   ..  .X...  .......+OOO@@O@X  +@+.... ..o....XX...",
".XX.  . . ...  ..  .X..  XX..XX....X+OOX@X  X@OX++X .X X+XX.  .+",
" ...      ..    .   .XXX.++XXO+.OXX++O@OO+XXX+X.+++..X.+.++  .. ",
"...X.    ... .  .. ..X++.XXXX++.X.XX..OO+O@O+XXXX.+..XX+.O+..O+ ",
"XXX+X... ...... o.X.....+..XXXXXX.+@+O@OOOOO+@@OX.++.+O++.  ....",
"X+X.XX.X..XXX.. . ...XX.X...XX..++OOOOO+OX.O+OX++XXO@OO+O .. . O",
".+XX++X++.....X.X..X.XX ...XX.X...XOOO++XO+OXO+X++XX..X+..Xo X..",
".X+XOO++OXXX.X++X.XX.XX ...XXX.XX++OO++X.OOOX+X+O++X...+O.XX++.X",
".XXX+O+O+X+OXXXX..XX.X+.X.XXXXXXOOOO++O+XX+@+..O++OOO+X+@..++. .",
".+X.+++OXX+OX.....XX.X+.XXXXXX.XX+O++OOOOX+O+.XO+++@@O+X+OOX.XX.",
".+X.X++OO++O+XX+XX++.XX.+XXXXX.X.+@OOOO+OOO.++O+@O+OOO++O@+O+X++",
".XXX+++O@OOOO+OO++O+XXX.O+X+++XXXO@@OO+XO+O.OOO+@OOOOOOOOX.O+ .X",
" XXXOO+OOX+OOOOO++OOX++.OX.X++XX.+O++OOOO.X+@XOOOOO@O+O@O@+++X+ ",
" ..X+++OO@OXXO@@@ o@+XOO@ ooo@@ @O++OO+OO++OO++OOOOO.+X+O+. OX.X",
"X..+O..@@@OOOO@@@OO ..@oo@@@@oOOXXX+++OOO++OO+OO@O+OX++OO+XX@+..",
".X.++X.O@@+O@++@@. @O X@@o@oo@@@XX+O++OO@O+OOOO@O+.X.X.O+X ... .",
".O+.+@O.@OX+OXX@X@OO @@X Oo@@.oXOOOO+++OOO+++OOOO+.O+O+@@O.+...O",
"XO+.O@@XOO+X+++O@.X@@oXO.O@o.X @@@OOO++++++++OO@++X@O@O@OO+@++XO",
"+X.XO@O+XO+.XO+XX..OO XO@ O@@@@@@@+OOO++++O+OOOO.XX@+O+@O++OXXXX",
"....++X+.++.++X.+@.@.. XX@@@@@+O@OOOOOOO+OOOO@OO+@@@O@O@@O@+.XOX",
" +O..+++.++XOOX. ...+.O@O#@o@.@.+O@@@OOO+O@@@@@O+@@@+O+O@+@O+X+ ",
"+O+..OO+X@+X+++X.OXO +.++@OX+O++O@O++OOO+O@O@OO+OO@O@@@@X+O+++++",
"OO+X.X++.O+O@++..X@XO.X.+@@OO++OO@O++OO++OOOO@@OOO@O+@+OO++++@@O",
"OOO+..X+ X.X+X++@O@ Xo+XXO@OO+XO@@@O+O+.+O++++OOOO@O++X+++X.+O@O",
"+OOOX.XOX+.+OXOO++++X+++X++OOXX@@@@O+OOX++++++++OO@OX+XO+XX.X+O+",
"+++O+X++XO+O@X..OOX@.O.XOO+OO+XOO@@O+O@OOOOOOOOOX+@++OO@+OOO+OO+",
"O+++OO+X.+.X+X+X@OXX.XXX@O++O+X+@@@+X+OO+++OOOOO++@OO@@@+@@@OO++",
"X+++OOOX+@X.XO@@..XX@OO+XO+++XXX@@@O+XX+XX+OO++OOO@O@@@@O@@@@O++",
".X+++@O+.@X.X+OX@O..XXXX +O++++O++O@O++O+X+OO+OOO++XO@OOO@@@@@O+",
"+XOX.OO++XO+++XO+XX+XXXXXOOXX@@+@@O+@@@ @+X+OO@+OOO+.@@@@OO@@@@+",
"  +X.+X.  X.XOOO+X.XXX.X+..++.X+.@@X  ++++OO+@@X+ .@@+XX+++OO+X.",
"O+OXX+.O..XX+@OO+X.XX...O..O+. +XXOO@@OX+@@O+O@X.+O+X++.+++O+X..",
"O+X... OO+O+OOXX+XXX..XXX++XXXXX@X+XXOO@OO@OX+@O@+O@+ X@O+X+O+X.",
"..XX+X +O.XOOO.+XX+X...X .X..+OXX.@@@O.++.X++O@@@+O@@..@OX.XO+X.",
"X.XXXX XX XOOOX+.XX. ..X......XX@++++O@@@X+@@@@@O@+XOOX.O+X+OO+X",
"X .     ..++OOXX......X.X......XoX@@+.O@@O@@@@@@@O.O@X.@O+++++X+",
". ++.X.  .OXXOX.XX. .XX.     .X+@@XOOX@+O+OO+@@@+@@OO+.+..XX.  .",
"+ .XO .....++.  ...  ...+ .. .X. @OO@O@@@@@O++O@+@O+OX.++...++..",
"X  o.o.X...XX..X..      .o . .+  O++OO@@@@@OOOOOOO+O@+..@X..XX. ",
".  o    .......X . o .   o   +O .OX++XO@O@@OOO@O@++O@@+.OX .X+. ",
" ..     X. ..  .  oo.    o o X+XX+X++.+OO+OOO@@@@++OOOOX+.  .X..",
" . o# ..X.. ..  . oo  oo ooo  ..XX.O+.++O+XOO+O@OX+OX+O++X.     ",
"o o o.....   .    oo. o o#o .  ....OO+O+O+XXXXX@XXO@O++OXXX oooo",
"#o . .       o  ooo .. .#oo .  X. .+++@X+O+..X+++++O@OX+...ooooo",
"#oo #oo o   #oo   oo ooo#oooo .+   X.XO.XOO..OOXO+ .++.... oooo#"
};
