/* XPM */
static char *_56f086b811443a7d4c50395f4733bafGtGN3VmPYrrvyAcq[] = {
/* columns rows colors chars-per-pixel */
"64 64 168 2 ",
"   c #6D6B66",
".  c #6F6E69",
"X  c #706E67",
"o  c #716F6A",
"O  c #74736E",
"+  c #78756F",
"@  c #767571",
"#  c #797672",
"$  c #7D7A75",
"%  c #7E7A75",
"&  c #7C7876",
"*  c #7C7976",
"=  c #7D7976",
"-  c #7C7A76",
";  c #7D7A76",
":  c #7C7B76",
">  c #7D7B76",
",  c #7D7A77",
"<  c #7C7B77",
"1  c #7D7B77",
"2  c #7E7B76",
"3  c #7F7B76",
"4  c #7E7A77",
"5  c #7E7B77",
"6  c #7F7B77",
"7  c #7C7974",
"8  c #7F7C75",
"9  c #7D7C76",
"0  c #7C7C77",
"q  c #7D7C77",
"w  c #7D7D77",
"e  c #7E7C76",
"r  c #7E7C77",
"t  c #7F7C77",
"y  c #7E7D77",
"u  c #7B7974",
"i  c #7D7B78",
"p  c #7F7A78",
"a  c #7E7B78",
"s  c #7F7B78",
"d  c #7C7C78",
"f  c #7D7C78",
"g  c #7D7D78",
"h  c #7D7D79",
"j  c #7E7C78",
"k  c #7F7C78",
"l  c #7E7D78",
"z  c #7F7D78",
"x  c #7F7C79",
"c  c #7E7D79",
"v  c #7F7D79",
"b  c #7F7E79",
"n  c #7F7F79",
"m  c #7F7D7A",
"M  c #7E7E7A",
"N  c #7F7E7A",
"B  c #7F7F7A",
"V  c #7E7C79",
"C  c #807C77",
"Z  c #807C78",
"A  c #807D78",
"S  c #807C79",
"D  c #807D79",
"F  c #817D79",
"G  c #807E79",
"H  c #817E79",
"J  c #807F79",
"K  c #827E79",
"L  c #807D7A",
"P  c #817D7A",
"I  c #827D7A",
"U  c #807E7A",
"Y  c #817E7A",
"T  c #807F7A",
"R  c #817F7A",
"E  c #817E7B",
"W  c #807F7B",
"Q  c #817F7B",
"!  c #827E7A",
"~  c #827F7A",
"^  c #827E7B",
"/  c #827F7B",
"(  c #837F7B",
")  c #807F7C",
"_  c #817F7C",
"`  c #837E7C",
"'  c #827F7C",
"]  c #837F7C",
"[  c #817E7A",
"{  c #80807A",
"}  c #80807B",
"|  c #81807B",
" . c #81817B",
".. c #82807B",
"X. c #83807B",
"o. c #83817B",
"O. c #84807B",
"+. c #84817B",
"@. c #80807C",
"#. c #81807C",
"$. c #81817C",
"%. c #81817D",
"&. c #82807C",
"*. c #83807C",
"=. c #82817C",
"-. c #83817C",
";. c #82807D",
":. c #83807D",
">. c #82817D",
",. c #83817D",
"<. c #82827D",
"1. c #83827D",
"2. c #82817E",
"3. c #83817E",
"4. c #83827E",
"5. c #84807C",
"6. c #84817C",
"7. c #85817C",
"8. c #84807D",
"9. c #85807D",
"0. c #84817D",
"q. c #85817D",
"w. c #84827C",
"e. c #84827D",
"r. c #85827D",
"t. c #85837D",
"y. c #84817E",
"u. c #85817E",
"i. c #85817F",
"p. c #84827E",
"a. c #85827E",
"s. c #84837E",
"d. c #85837E",
"f. c #85827F",
"g. c #84837F",
"h. c #86827E",
"j. c #86837E",
"k. c #86827F",
"l. c #86837F",
"z. c #87837F",
"x. c #85847E",
"c. c #84847F",
"v. c #85847F",
"b. c #86847F",
"n. c #87847F",
"m. c #87867F",
"M. c #83817D",
"N. c #878380",
"B. c #858480",
"V. c #868580",
"C. c #878580",
"Z. c #868581",
"A. c #878680",
"S. c #878681",
"D. c #878781",
"F. c #868582",
"G. c #878682",
"H. c #878481",
"J. c #888580",
"K. c #898681",
"L. c #888782",
"P. c #888783",
"I. c #898883",
"U. c #8B8883",
"Y. c #898884",
"T. c #8A8984",
"R. c #8A8985",
"E. c #8C8984",
/* pixels */
"r.r.r.J.U.r.r.r.J.J.r.r.J.J.r.n.J.r.r.r.r.r._ r.-.-.B.B.X.X.r.r.F.r.-.-.{ -.X.-.-.-.-.B.B.B.F.c.c.-.-.F.c.P.P.T.P.m.P.T.P.m.m.T.",
"r.r.~ r.z.r.r.r.J.N.J.r.r.J.r.J.r.r.-.r.r.r.r.r.r.-.-.@.X.-.r.J.J.n.n.-.-.-.@.-.-.-.2.@.@.-.-.-.-.c.c.-.c.n.P.P.P.m.n.P.T.P.m.I.",
"r.r.r.r.~ _ ] ] r.r.r.O.X.-.~ -.z.r.~ ~ -.~ ~ ~ X.-.@.b -.r.X.X.r.r.-.b b 9 b @.@.X.m -.{ b -.-.@.{ -.-.-.P.n.F.P.P.n.F.P.m.n.P.",
"X.~ r.r.~ ] N.N.r.r.r.r.-.-.b -.r.~ ~ r.r.-._ ~ ~ -.@.m -.r.r.-.~ X.b $ b b b b b b { b b @.b @.-.@.c.c.c.P.P.P.m.P.c.m.P.P.n.c.",
"-.-._ r.~ -.N.r.N.N.N.-.d -.-._ ~ r.] r.-.m -.b X.b m m b -.r.O._ b -.b b b b b b b b d -.b @.b X.@.-.B.F.P.P.F.c.n.n.c.c.X.n.c.",
"-.r.r.r._ r.r.] 3.N.-.-.b b -._ ~ r.r.] -.-.-.b b @.d b _ _ _ ~ b -.b { b b b @.b b b b { @.b b -.@.@.B.F.F.B.B.P.n.n.c.<.c.c.P.",
"-.~ -.b ~ _ r.i.N.] B.-.B.-.b ~ ~ r.( _ -.~ -.~ b ~ -.@.r.~ _ ~ ~ _ -.b b -.b b b b -.{ -.{ -.{ { -.@.B.F.n.c.B.c.m.n.c.c.P.n.c.",
"r.~ _ r.] r.r.N.i.] m -._ b _ r.r._ ~ b b -.{ b b b -.-.-.r.~ ~ ~ ~ b b b { b u b -.b @.-.b m @.@.m -.-.c.n.c.c.F.c.F.n.n.c.B.-.",
"~ ~ ~ r.r.-.-.-._ _ _ _ N.-.B.B.N.] _ _ _ -.@.{ b -.-.B._ _ _ -.~ b b b @.X.{ b m b @.{ -.-.@.-.@.-.@.B.@.B.@.B.c.c.c.c.-.c.-.-.",
"~ ~ C ~ ~ i b b _ b m b m -.-._ _ _ r._ b _ @.@.~ b @._ ~ ~ ~ b b ~ b b b @.m @.@.X.b b -.-.b m b m @.@.-.-.B.B.c.-.@.@.-.@.-.m ",
"Z ~ _ r._ ~ ~ X.-.m m d m B.-.B._ B.B.-.b m m m m b ~ b ~ _ _ -.~ -.~ m @.-.@.b b -.X.{ b b @.-.m @.@.-.@.B.b -.c.@.c.-.m @.@.d ",
"$ ~ -.b ~ ~ ~ C b i m b m m B.m B.-.B.B.N.B.-.@._ b ~ i b _ b -.m ~ @.-.@.-.-.@.@.{ b b @.d b -.B.-.B.@.-.-.-.@.X.-.-.-.B.@.b b ",
"~ $ ~ ~ C 9 C $ * * * b m @.F.B.B.@.-.B.B._ _ -.-.i * * b i b _ @.b b m b m b b b b b * b u * b m -.@.B.m @.-.m -.@.m b @.b d * ",
"~ ~ i ~ 9 9 $ $ * # d b @.@.@.-.B.B.@.@._ b ~ m b i * b b b b b m -.b b b b b m m b { b @.b d { b m @.-.B.-.d b { ~ -._ b d # # ",
"~ ~ $ Z u u 9 { * u b _ -._ -.-.m m m d b b $ b b b @.* b * $ $ b C 9 $ * b b b b b b b b b d u d b @.-.-._ b ~ b $ ~ b b 9 @.u ",
"~ ~ $ $ * $ 9 u g u i _ _ ] _ _ m b b b b i i i i * d u $ # & 9 $ i i $ b b b b b @.b * d d b * b { @.@.m -.b ~ $ i 9 i b b b u ",
"$ $ ~ u $ ~ Z ~ b 9 $ ~ ~ Z i _ ~ i * * u u b b C # u i i u u $ w @ @ w w 0 w O w w w 0 w w w @ * -.{ b w X.u u w 9 8 u u X.9 $ ",
"$ Z $ $ ~ $ ~ ~ b 9 b $ i Z Z ~ _ i b b b b * i i $ i u i i # u + @ w w @ @ O w w @ @ 0 w w w w u { b d u w 0 9 # # u 9 9 u + 8 ",
"~ ~ $ $ $ $ b ~ 9 9 9 9 $ _ ~ i _ d b d $ $ 9 $ i $ $ 9 i * i * + w w w w O @ w @ w @ w @ 0 w w * b * d 9 9 w 9 9 8 u u 8 u # 8 ",
"$ & # $ $ $ * u $ u * * Z Z i $ * b i * u $ $ $ $ $ * # u u * u w + O @ @ O @ O O @ w w @ O @ w u u * b w 9 0 9 # # 8 # u $ u u ",
"7 7 # 7 Z $ $ $ $ * * * Z Z i i i d b i $ $ * u $ $ # $ # # u $ 9 u + + @ @ O @ O @ w w w . @ @ # # u u u 0 w @ u + # u u 9 u + ",
"C # $ $ & ~ b b i u u u i Z i i * i b b i $ # u u # + u u O + # + + w @ @ O @ O O @ 0 @ @ w @ w # # @ 0 u u w @ # # + $ 9 # u 9 ",
"& & u # * 9 $ b Z $ $ $ $ i p p i $ i i @ # u # # u # # # + + $ + u u + w O @ O @ O O O @ @ @ @ 0 0 @ 0 0 @ @ @ u + # # $ + u $ ",
"7 O u # # * * * i $ # & & i p m ~ i i & d u u u # u $ $ + u + u u 9 + O @ @ O O O O O @ @ O @ @ # u @ u u @ @ + + u $ 9 9 # + $ ",
"# # # O & @ u u & & @ * & & & m $ i i & & # # * # * * u + # u u @ + O O O O @ O @ @ w O @ @ @ O @ 0 @ @ O + O O # u u 9 9 u u # ",
"& # u # & @ u @ @ d d @ & & & & u $ & u & # * i * * u # u u u u w u u @ O @ @ u @ @ O O @ @ w @ @ + 0 @ u 9 u u u 9 9 9 9 + $ # ",
"u @ # # O O @ @ @ @ @ d & @ @ & # @ u u & # & & u # # # u # + u u + O O @ @ + @ w O O O @ @ @ @ @ @ @ @ 9 @ u @ O # # # 7 + 8 + ",
"& # # # @ @ @ @ @ u @ @ & @ & @ d * u @ & # # & u u u # # u + + O O O u + O @ @ @ @ O O @ w w O @ @ @ O @ + u @ O u 9 + # # $ u ",
"* # # # @ @ @ @ @ u @ @ @ h & & d @ & & & O + & + # # # # * # u @ @ O O @ @ @ @ @ @ @ O @ 0 @ @ @ @ O O O O @ u @ + O O # 7 # 7 ",
"# @ # 0 @ @ @ O @ @ @ O @ @ & @ @ u & @ + & O & # # @ # @ @ * # w @ O O @ @ @ @ @ O @ w @ @ @ @ O @ O O O O + @ + + + + 7 + # + ",
"* # # # @ @ @ @ o @ @ O @ O O @ u @ @ @ & # # C + # # O @ # # # @ @ . @ O O @ @ O @ @ @ @ @ O O . O O O O + O + O @ 9 O + 8 7 + ",
"* # # # @ @ @ @ @ @ O O O @ O @ O # O O # # + # O # * # @ @ @ @ u @ O @ O O @ O O w @ @ @ @ @ O O O O O O @ O O O O + + # + # 8 ",
"& & & @ @ @ @ @ @ o @ @ & O O o o S S O O O O O o Z C S Z   o C O O u O @ @ @ O O @ @ O O @ @ O O O @ @ @ @ 0 O O O 0 0 O 0 O w ",
"& & @ @ @ & & o o o o @ O O O o o o O & & S O S Z o o o o C o O u + u + + @ + O @ @ @ @ @ @ @ O O @ O @ w @ @ @ O 0 @ 0 O @ w @ ",
"@ & & @ @ & & @ o @ @ @ O O o o o & S O o S O O o S o Z C o o o u + u O @ @ @ O O O @ @ @ @ O O O @ w @ w @ @ @ O @ w 0 @ w w w ",
"& @ @ & @ o @ @ o @ @ @ @ @ & o O o O o S O o # Z o Z O o C C O O O O O @ @ O @ @ @ @ @ @ @ @ O O w @ @ @ @ @ O O O 0 @ @ w w O ",
"@ @ @ d @ . @ @ & o & & @ @ & @ o & & o O Z o # S o o Z & O Z O . O O O @ @ @ @ @ @ @ @ @ @ O O O O w O O O O . O O + + @ @ @ @ ",
"@ & @ @ @ o o & @ @ @ & @ @ @ @ & & & o o C Z o o C o o o O o o . O @ O @ @ @ O O @ @ O O O @ O w @ @ @ O O O O + + + O @ w @ @ ",
"d @ ) d @ @ @ @ & & @ & @ O & & O O & o S O Z O O o o o o o # O O O @ O O O O @ @ 0 O O O O O O O O O . O O O O X + O + w + @ @ ",
"d @ @ @ & @ & @ & & @ @ @ @ @ i & & & & O S o O # Z o Z o # o # + O O . O @ O O @ @ . O O . O @ @ O . O O O @ O O O X + + + + 9 ",
"@ @ @ & & @ @ @ @ O @ @ @ @ @ @ & O & O & @ & @ # o # @ @ O O + O O @ @ @ O O @ @ O O O O . @ O O O O O O X O O + O O + + O O + ",
"O @ @ @ d @ @ @ & o & o O @ @ & & & o & @ & & @ O o o @ O O # O O O o @ @ @ O @ @ O O O O @ O O O @ O @ O O @ O O O + + O + X O ",
"@ . @ & @ d d @ & & & @ @ O @ @ o o o & & & & @ # # O O O # O O O o O @ @ @ @ 0 @ @ O @ @ @ O @ @ O X @ @ @ 9 @ + @ @ + + O O O ",
"@ O @ @ @ d @ @ & @ @ @ O @ @ O & o & O @ @ @ @ + + + O o & & O o . . O @ o @ @ @ O @ u @ @ @ @ @ . O O w O + + O @ @ w + + O O ",
"@ @ @ @ @ @ @ @ @ @ @ o # & & # O o # # & @ @ # + O O O O O # O @ X O + @ @ O O @ @ @ @ O @ @ O w O O O O O O O O + O O O O O O ",
"@ @ O @ @ @ @ d @ & @ & # O # # o O & O @ @ & # + O + + # # # + O . O O @ @ @ @ @ @ @ o O O O O O O O O O O X X + X X X X O + + ",
"@ & @ @ @ @ @ @ & o @ & # o o o + S # # o # @ O + O O O + + # # O o O O O w O @ @ u u @ O O @ @ O @ O O O X X O O O X O O O O O ",
"d @ @ & @ . @ @ & o & # # # O # o # & & # # O & & + O O + O # O O O O O @ + O @ u @ @ @ @ @ @ O O @ @ @ + X + O X + X X O X + + ",
"& @ @ & & @ @ @ & @ @ @ @ @ @ @ @ # # # # # $ # # O # # # O o O O X O O @ . . w O O 0 @ @ . @ @ O @ @ @ @ @ X O X O O X X X O + ",
"& d @ & i @ @ @ i i d d & @ @ o @ # & & # # & # O # # # # # # # @ @ O @ w w @ @ @ @ O @ @ @ O @ @ w @ @ @ O + + + + @ O O + + + ",
"@ @ & & @ @ d @ i i @ @ @ o @ @ # @ # # u # u u O & # O + & & + @ w O @ O . @ @ @ @ . @ @ @ O @ w @ @ @ O w @ w O @ + @ + + 9 9 ",
"@ @ @ & d @ d @ @ @ @ @ @ o & @ + # # * u @ u # O + & O & O & + @ @ @ @ @ O @ . @ @ O @ @ O O @ X @ @ O O w @ . + + + + O O + + ",
"& & d @ & @ d & @ i & O O @ @ & # # # # $ & 7 & & + & & & O O & @ 9 + O O @ @ @ O @ w O O @ . . O O O O O w w O + + w + + + + w ",
"d @ @ d @ d d @ @ i @ O @ @ & @ u + u * & & u & C Z + & & & # # O @ + + @ O O . @ @ @ O O O O O O O @ @ O @ O w + O w + + @ + + ",
"@ d d & d d d d i i @ & @ o & & u u u # $ * # & O + S & & 7 7 # w @ + O @ w @ . . @ O . . O . O . O @ O O @ w O + @ O + + + w + ",
"d d @ @ d @ d d i & @ & @ @ & & # u * i $ # # u C & S & Z & + # O @ @ O O @ @ O O O @ @ @ O . . O O O O O O w O @ 0 w + w w + w ",
"# * * # # * # * & & d @ @ & d d i $ i i * * & $ @ p p @ I & # i w O O O + O . O X . O O @ @ O O O O @ @ O @ u @ @ 0 u u + @ u 9 ",
"# b b d d b d * & i & & & & d @ $ i i b b * i Z Z Z Z p Z # & i w + O @ O O O X   O O @ @ @ O . @ O O @ O O 9 u @ @ 9 9 + + 9 w ",
"d d b d d @.i * & @ i & @ d & @ u m b ~ $ u $ $ Z p I p Z # o p + + 9 @ O @ + O O O O O O . O O o O O O @ . u u O + w u + + 9 w ",
"d # m -.d d m b & & i & d d i h i _ _ _ i b ~ ~ Z Z I Z Z & u u 9 + O + @ w O O O @ @ + O O O . o u @ @ O @ @ # + 9 w 9 w w + 9 ",
"d d b m B.i i i @ u d d i d i i i i -._ Z ] ] ` Z I i.` $ & $ u @ @ 0 @ @ u @ u O O @ @ @ @ O O O @ @ O @ @ @ # # + * $ n w { { ",
"-.b b m -.i d * i u i i i i i ) _ i _ _ i Z Z i ` i.3.p _ i $ i 9 @ w @ O O @ @ O @ 9 + @ 0 @ O u O @ o @ # @ O # + u 9  .<.{ O.",
"B.m m d ~ i b d b i & m m _ m m Z ~ _ _ i p I i i.i._ m { d 9 u 9 9 w @ @ @ O u @ @ @ 9 0 0 O + @ @ @ @ # O u + * 9 9 b X.X.O.+.",
"B.m b b _ _ _ i i _ m _ 3.3.) m ~ Z ] _ i _ _ Z i.N._ i.b { * @ 9 9 w @ 9 @ @ u @ @ @ @ w O O 0 @ @ 9 u # + u u * C u { c.X.+.n."
};
