/* XPM */
static char *b15344ad11d444d1e425bde3904cbc945lTmzTwPH3DQo5fy[] = {
/* columns rows colors chars-per-pixel */
"64 64 7 1 ",
"  c #C5B192",
". c #C7B495",
"X c #C3AF8F",
"o c #C0AC8D",
"O c #94AA8A",
"+ c #6DA383",
"@ c #3D9C7C",
/* pixels */
"................... .. ................ ..  ..     .....        ",
". ................. ...............  ..  .  .  .  ........    XX",
".  ..............................   ....  .     .  .......    XX",
". ...........................  ....  ...   X  XX . ...... X     ",
".  ........................OOoOO OoOOOOX  XX  X    ..... XX     ",
".  .............. ...... ..O@o@O +o++OOo  XX .  X  ....   X     ",
" ..........  ..............o@o@+X+ ++oOoX     X X    ..      XX ",
" ...    ............  . .. X@O+@OO +@O+ o .  ooo     ...     X  ",
"...  ..    ..... ... .. .   O@+@@oX+@OOo XX     .  .          XX",
"...   ......... ........    o@o+@ o+@O+O XX  XX     .    . X   X",
".... .. ........ ... ....    + oO XOOOOo XX  XXX              XX",
".....  ......... ..  ... . ..   o  oo  X XX  XXX    ..      X XX",
"...     ....... .........  ... . . XX  XXXXX XX              XXX",
".. .   ......... ........  . ..  . XXXXXXXXX     XXX        XXXX",
"...   X . ......  ......   . .  .   XooXXXXXX     XX       . XX ",
"....    ..  . ..........    ... .    Xo XXXXX       . ..        ",
" ....  ...... . .....   ...  .. ..  XXXX XXXX   XXX  .. X   XXXX",
".....  X. ....  .....        .....  XXXXXXoXX .     ..    . XXXX",
"....   X. . . . .....  .   X  .. .. XXXXXooXX    XX  .   .   XXX",
"... .  X . . .  ....  ..   XX   X..XX XoXXXXXXXXoooX  . . .  XXX",
".....     . . .        .XXXXX   o  XX XoXXXXXXXXoooX  .. ..  XXX",
"....   . . . . ...      oXXXX   oX XXXXooXXXX   XXXX         XXX",
"......   . .. . .       oXXXX  XoXXXXXXXooXXX   XXXX          XX",
"... .  X.. .... ..X X   X   XXooooXXooXXXXXXXXXXXooXX   ...   XX",
"........   ...  .       oXXXX . XXXXoooX XXX  XXXX X   ..    XXX",
"......... ....  . X X   oX XX  XXXXXooXXooooXXoooXXXXXoo..  X   ",
"        ....        XX  X    XXoXX XXoXXXXXXX  XXX    XX .    X ",
" .. .     ...X       XXX    XXooXX XXXXXoXXXXXXooXXXX  X     X  ",
"....     . .   .  .. XX   XXXXXXXX XXooXoXXoooooXoXX           X",
".. ..   .  .   .  ..      XXXXX XXXXXooXX  XXXXXX   .. X   .    ",
"....    ..  . . . . .    XX  X  XXXXXXXXoXXoooXXXXoXXXXo       X",
". . .   ..  .   ..     X XX   X XXXXoXX oXXooX   XoXX .     XXXX",
".....  . ...  .... . . .     ...XoooXX .XXXXXXXoXXXX    X       ",
".....  ....... .....  .       .  X X   .oXXoXXooXXXXXXXXXXX     ",
".  ..  .. . ....... .  .       XXXXXXXX oXXXooXXXXXXXXXXXXXXX   ",
".. ..      .......  . . X      XXXXXXXoX   XoXXXooXXXXXX XXXXXXX",
". .         ....  .  .  XX XX  X      XX  XXXX XXoXXXXXXXXXXX   ",
".   .   .. .    ........XXXXX   .  ..   XXooX  XoXXXXXXXoXoXX  X",
"..    . ..  .  X.. .       XX      .  X XXooX XXoXoooXoo XXX  Xo",
"..   .  ... ..  ...   XX   XX   .  ..   XXXoXXoooooooXXXXooX   X",
".         ... ...X .    X  XX ...    ..XoXXXooooXXXXXX XoX   XXX",
"..  .     ...... X .    X  XX  X X XX  XoXXooXXXoXXoooXoX   XXoo",
".  . .        .. X .   XXX   XXX XXXX  ooooooXoooXXXoXXoXXXXXXXX",
"    ..        .. XX  X X XX.. X .   X  oXooooXXoXXXXXXXXoXXXXXXX",
"    .    .   ....XX XX X XX     . . X Xo XooXXXXoXXXXX XXXXXXXoo",
"     .    XX  . .XX XX X XoX    oXXXoX oXXooXXoooooXX  XXXXXXXXX",
"   X    XXXX    Xoo    XXXXX   XXoXXX  XXooooooXXXXXX   XXXX    ",
"   XX    .  ....ooo    XX    . o  .   .  XXXXXXXXXXXX  X  X   XX",
"        o  Xo    XoX    XXXX     XX  oX.  XoooXXoo  XoX.XX     X",
"       .X  XXXXX XXX    XXXXX .      XX oooooooooooXXXX XX     X",
"  XXX  .XXXXo  X   XX    XXXX  .   . XX ooooooooXoooXXXX        ",
"  X XXX XXXXX  XX  XX  X XXX  .         XXXooXooXoooX           ",
"     XoX  XXXXXXoXXXX  XXXX  .   X   X .XXXoooooooXX            ",
"    XXooXXXXXXXXoXXXXXX XXX        XX   XXXooXXXooX    .        ",
" XX XoooXXoXXXX XXX  XX  X   .   .   X  XXoooX XoXXXX           ",
" XoXXooXXX XXXXX XX .XX       .  ..     XXXooXXXXXooXXXX        ",
"  XXXXXXXXXXXXXXXXXX  XoXX  .         . oXoXXXXXoXXX    . XX    ",
" X XXXXXXXX XXXXXX X  XX XXXX .. . . .     XXXXoXXXXX           ",
"        XXXXXXXXX   XXXX  XX  .... .  ..      XXXXXXX  .  ..    ",
" X X X    XXXX X    XXX    .... ..  . ..          XXX    ....   ",
"            XXXXX   XXX   . . .   . .   ..     X           .   X",
"    X        XX X   XXX ..    .. . .  . .   .  .  . .    .....  ",
".              X     X  .    .....  . ..    ....   ... .........",
"...    .XX      X      X  ................ ..   .    ..........."
};
