/* XPM */
static char *_343f1191f374c2e81cf144f299222455Gsz4phkh7nKQBIl[] = {
/* columns rows colors chars-per-pixel */
"64 64 186 2 ",
"   c #BFA886",
".  c #BDA788",
"X  c #BFAA8B",
"o  c #C3AE8D",
"O  c #C2AE8D",
"+  c #C0AC8E",
"@  c #C1AC8E",
"#  c #C0AD8E",
"$  c #C1AD8E",
"%  c #C0AC8F",
"&  c #C1AC8F",
"*  c #C0AD8F",
"=  c #C1AD8F",
"-  c #C2AC8E",
";  c #C2AD8E",
":  c #C3AD8E",
">  c #C2AC8F",
",  c #C2AD8F",
"<  c #C3AD8F",
"1  c #C0AE8E",
"2  c #C1AE8E",
"3  c #C0AE8F",
"4  c #C1AE8F",
"5  c #C1AF8F",
"6  c #C2AE8E",
"7  c #C3AE8E",
"8  c #C2AF8E",
"9  c #C3AF8E",
"0  c #C2AE8F",
"q  c #C3AE8F",
"w  c #C2AF8F",
"e  c #C3AF8F",
"r  c #C1AC8D",
"t  c #C4AD8D",
"y  c #C5AD8D",
"u  c #C4AD8E",
"i  c #C4AE8E",
"p  c #C4AF8E",
"a  c #C4AE8F",
"s  c #C4AF8F",
"d  c #C5AF8F",
"f  c #C1AC8D",
"g  c #C3B08F",
"h  c #C4B08E",
"j  c #C4B08F",
"k  c #C4B08F",
"l  c #C0AD90",
"z  c #C1AD90",
"x  c #C1AD91",
"c  c #C2AC90",
"v  c #C2AD90",
"b  c #C0AE90",
"n  c #C1AE90",
"m  c #C1AF90",
"M  c #C0AE91",
"N  c #C1AE91",
"B  c #C0AF91",
"V  c #C1AF91",
"C  c #C2AE90",
"Z  c #C3AE90",
"A  c #C2AF90",
"S  c #C3AF90",
"D  c #C2AE91",
"F  c #C3AE91",
"G  c #C2AF91",
"H  c #C3AF91",
"J  c #C1AF92",
"K  c #C1AF93",
"L  c #C3AE92",
"P  c #C2AF92",
"I  c #C3AF92",
"U  c #C2AF93",
"Y  c #C4AE90",
"T  c #C4AF90",
"R  c #C4AF91",
"E  c #C4AF92",
"W  c #C2AF94",
"Q  c #C3AF90",
"!  c #C2B090",
"~  c #C3B090",
"^  c #C3B190",
"/  c #C2B091",
"(  c #C3B091",
")  c #C3B191",
"_  c #C2B092",
"`  c #C3B092",
"'  c #C3B192",
"]  c #C2B093",
"[  c #C3B093",
"{  c #C2B193",
"}  c #C3B193",
"|  c #C3B292",
" . c #C3B293",
".. c #C4B090",
"X. c #C5B090",
"o. c #C4B190",
"O. c #C5B190",
"+. c #C4B091",
"@. c #C5B091",
"#. c #C4B191",
"$. c #C5B191",
"%. c #C4B092",
"&. c #C5B092",
"*. c #C4B192",
"=. c #C5B192",
"-. c #C4B093",
";. c #C5B093",
":. c #C4B193",
">. c #C5B193",
",. c #C6B192",
"<. c #C6B193",
"1. c #C4B292",
"2. c #C5B292",
"3. c #C4B293",
"4. c #C5B293",
"5. c #C6B292",
"6. c #C6B293",
"7. c #C7B293",
"8. c #C6B393",
"9. c #C1B094",
"0. c #C2B094",
"q. c #C3B094",
"w. c #C2B194",
"e. c #C3B194",
"r. c #C2B095",
"t. c #C2B195",
"y. c #C3B195",
"u. c #C3B294",
"i. c #C3B295",
"p. c #C4B094",
"a. c #C5B094",
"s. c #C4B194",
"d. c #C5B194",
"f. c #C4B095",
"g. c #C4B195",
"h. c #C5B195",
"j. c #C4B294",
"k. c #C5B294",
"l. c #C5B394",
"z. c #C4B295",
"x. c #C5B295",
"c. c #C4B395",
"v. c #C5B395",
"b. c #C6B294",
"n. c #C6B394",
"m. c #C6B295",
"M. c #C6B395",
"N. c #C4B196",
"B. c #C5B196",
"V. c #C4B296",
"C. c #C5B296",
"Z. c #C4B396",
"A. c #C5B396",
"S. c #C4B297",
"D. c #C5B297",
"F. c #C4B397",
"G. c #C5B397",
"H. c #C6B296",
"J. c #C6B396",
"K. c #C7B396",
"L. c #C6B397",
"P. c #C7B494",
"I. c #C6B495",
"U. c #C7B495",
"Y. c #C5B496",
"T. c #C5B497",
"R. c #C6B496",
"E. c #C7B496",
"W. c #C6B497",
"Q. c #C7B497",
"!. c #C6B597",
"~. c #C4B192",
"^. c #C8B597",
"/. c #C5B398",
"(. c #C6B398",
"). c #C7B398",
"_. c #C5B498",
"`. c #C5B499",
"'. c #C5B599",
"]. c #C6B598",
"[. c #C6B599",
"{. c #C7B599",
"}. c #C7B699",
"|. c #C7B69A",
" X c #C7B398",
".X c #C8B599",
/* pixels */
"x.9.9.].x.9.9..X]./.9./.x.x.x.-.x.].~ 9.x.x.9.x.x./.~ /.9.K.-.x.H E x.~ 9.E.H o x.x.~ o ~ x.H ~ H ~ ~ ].x.E.-.l.j j o -.~ j o ~ ",
"-.x.9.x.E.-..Xx.~ x.].].x.9.~ E.x.x.~ ~ x.~ x.|.].].E.9.x.9.x.~ x.x.9.~ ~ x.H ~ ~ 9.~ H -.H o H H ~ ~ 9.l.E.l.P.^.l.-.o -.j X H ",
"9.x.~ x.].-.9.x.x.9.E.].Z.Z.E.Z.E.| -.g ~ x.x.].].].].F.x.~ W x.H -.~ H -.-.x.~ ~ ~ H 9.-.~ X H -.~ ~ 9.-.-.j E.E.-.y g -.-.H % ",
"x.~ ~ -.E.-.-.x.].E.E.~ ~ 9.~ E.Z.E.E.l.x.x.].x./.F.].F.9.~ E.H H R x.o o -.9.x.H ~ H X o ~ H H ~ H -.~ E.-.-.x.l.j t o j R o o ",
"-.R -.~ 9.x.~ x.E.-.x.x.x.x.9.x.~ -.-.-.~ E.9.~ 9.E.].E.x.x.9.x.H ~ W ~ -.j H ~ H o o o ~ 9.X H o H H -.-.~ x.~ H o H ~ o -.o -.",
"~ x.-.x.x.x.~ x.-.-.x.9.].x.^.-..Xx.Z.~ ~ ].-.Z.x.9.9.x.~ x.~ ~ H H H W g o o o H H X o ~ H ~ H o ~ 9.~ ~ x.~ ~ 9.o t o o o j j ",
"R 9.x.-.x.~ -.9.E.Z.-.~ 9.~ E.-.E.9.E.9.x.x.E.-.~ 9.x.~ x.9.~ ~ ~ ~ ~ H H H o H X 9.o H H o ~ o X H ~ o ~ -.-.R -.-.y o R H o o ",
"-.E.x.9.W H ~ ~ ~ E.x.-.l.E.~ -.E.9.E.].9.~ E.~ E.~ -.~ ~ H ~ x.H H ~ c X o o R X o H ~ o X X X o X H H ~ H j -.j j -.H o y o o ",
"-.-.x.9.H H H ~ ~ 9.~ 9.x.x.~ x.~ x.x.x.~ x.x.~ ~ 9.H H -.x.H 9.H H X H o ~ o H H X H ~ -.o o H H H ~ ~ ~ -.R R j j j o o o o X ",
"-.-.-.~ H 9.x.9.E.E.E.x.x.~ E.~ ~ x.x.H H ~ E.E.9.~ H ~ ~ 9.~ ~ H H % o H 9.H H H o X H H o X o 9.~ H ~ x.-.y R -.j j h j o o o ",
"l.E.-.-.~ H x.~ -.E.E.E.~ E.9.E.-.~ E.9.H 9.].~ ~ 9.H H ~ x.~ ~ % o o H X H o H f % o H H X H o H o o ~ g -.H H R -.j t o o o X ",
"l.-.-.x.9.H H H ~ ].F.Z.E.x.9.~ -.9.E.~ 9.S.9.-.o R ~ H H ~ 9.o R H H % X o o X y % H % o % X o o R -.o ~ -.E E y -.-.j o o % o ",
"-.~ -.| ~ 9.~ ~ l.l.l.l.9.~ x.E.-.~ Z.~ ~ E.-.-.H R x.x.x.~ 9.H H H X o H H H o o % f t f t ~ H H H H % H H o H H ~ o o H f f t ",
"l.-.9.~ H H H ~ l.-.l.-.E.E.9.~ ~ -.~ E.9.~ E.E.x.H g -.x.~ x.H H ~ H H X X X o f % f f y o o ~ o X o % o H o H -.H o o o % f f ",
"E.~ x.~ o ~ o j -.-.l.-.-.~ E.Z.g g -.x.9.~ -.-.~ R ~ R ~ ~ x.~ H H H X o X X o f f f f o H H o ~ X H o ~ ~ -.~ H H h g y f y o ",
"x.x.~ x.x.H o y l.l.-.o -.-.9.~ -.-.E.x.x.x.x.x.~ g H j -.Z.~ -.H -.~ o H X X o % f f f o X H o ~ ~ H H o ~ -.~ ~ o t -.-.% H y ",
"x.~ l.l.-.g o o -.l.-.j l.-.R H x.9.l.x.x.~ 9.~ H H -.~ ~ 9.~ 9.x.-.~ H X o X t y f X f o o H 9.H X o H -.j -.g g o -.j o X t X ",
"x.~ -.l.j g H H ~ j -.j -.E.~ -.-.x.E.l.~ o -.-.R R -.o ~ 9.x.x.~ H 9.H X o o t f f % X X R H H H H H o -.-.-.t g ~ -.~ t X g g ",
"x.x.-.-.9.~ H X -.-.l.-.l.~ ~ ~ x.-.-.-.~ ~ -.g o H % % o ~ 9.-.o H x.o o o X X f   X f o H o o o o X H g -.y -.~ -.g j t h X g ",
"x.~ -.-.~ H ~ ~ g -.E.-.-.g ~ ~ x.~ g -.-.~ g -.o % R H X H -.o o H x.X X H t f o X % X H X y % X X X o H ~ g -.9.E.~ g g X t t ",
"~ -.E.~ 9.H o ~ o H 9.g R x.~ R 9.H 9.H o H -.-.% % y H X o H H X H H o % o X f o X o X X o % % o X t X o o H H ~ ~ ~ g h h t h ",
"E.x.x.E.x.-.o ~ H ~ l.-.o x.x.H -.o ~ 9.~ H ~ o X . o o H H o 9.X H o % o f % f X X X o X H o H % X % o H ~ x.H H -.x.g t X X X ",
"x.-.9.-.-.H H H -.o -.-.~ -.x.W ~ H X 9.X o -.g o c H X % H S.X X X X % % o X % X X X o o o % o H f f % X ~ x.o ~ g ~ g t h h t ",
"].x.x.~ -.~ ~ X x.o ~ E.x.o H x.H H S.X H o o -.X H o H o o X X X f f % X X X o c X H o X o o o % % f f o ~ ~ H -.-.g g g g t X ",
"x.9.x.x.-.-.-.l.~ H ~ E.x.9.R o H H H H X H H H X o X c 9.~ H H % % o X X . X f o o X X H o f X o X o o H H H H j -.H g o o X o ",
"x.~ ~ 9.g -.l.~ ~ ~ ~ ~ ~ o H -.H o X X H ~ H H % o % H X H H o f X X t X X % % X X X X H X f X X o X o X o X X j l.o o o o o o ",
"~ H x.x.-.j 9.H ~ -.x.x.-.o H H H X H H H X H o X o H H o H o X % o o f X X o o o X X o X % % o . % H -.x.o H H j -.g g R H o o ",
"~ H H x.-.-.H ~ ~ -.x.x.9.H X H H H H H H X H o H H o % X H X X % y o % t f X % X o o X X H f X f f X X ~ o X o -.o y g R X o o ",
"x.H H 9.-.-.H H ~ H H R R R H W ~ H R ~ H o o H H o ~ ~ H X H H c H X H X X X t X X t X f f     X f f f g ~ o H g -.o R R o o o ",
"9.H x.9.j -.-.~ -.H H H o H ~ H 9.H 9.R % o ~ ~ H X ~ X X H 9.X o % H o X X X X X t o X f f f f % f t t H H o X ~ y -.H H y ~ o ",
"x.~ 9.x.g H o H x.x.o ~ -.H H H x.~ 9.x.H H H H o % o o H H X H H X H X H X X o f X f X   . f f % f X o H o H X ~ o H H H ~ o o ",
"x.~ ~ x.g H ~ o E.-.H ~ ~ ~ o ~ x.~ ~ 9.H o H y H % % o H o 9.~ X H X X o X H o X f %   f f f f f o   % o H H o H o o o o X H X ",
"l.-.H E.~ H ~ x.~ ~ -.-.g o ~ ~ 9.H H H o -.-.H H ~ H ~ ~ ~ x.~ H X X X X 9.9.~ f X % % f f f f f f f f o H o o % o o ~ o -.j o ",
"l.-.-.-.~ H R W x.g E.l.H -.-.x.^.H 9.H ~ H o H o H ~ o o ~ ~ x.9.X H 9.H X H o % % f f f f % . f f f f y f o % % X o o R ~ o o ",
"-.j x.x.9.~ o H ~ ~ -.-.~ o 9.x.-.x.9.x.~ H -.~ o H H H ~ o 9.9.~ X ~ X H o o o % X H X . f f f f f f f f f f f f t X g H o o ~ ",
"x.o ~ 9.H H o 9.9.~ ~ H x.9.E.x.-.g ~ 9.~ H y -.~ X ~ 9.~ ~ H X o X X H X X X H H X x.W f X f f f f f f f f f f t t X -.X X o H ",
"-.o o H W H o ~ ~ H H H -.~ E.~ -.~ ~ ~ x.H H 9.o o o X X o H H ~ H H ~ W H X X o H X W X H ~ X f   f f f f f f X t X X ~ o o o ",
"-.j o H W H X 9.9.H ~ o ~ -.o ~ ~ -.H x.-.H g ~ X H H H % H H o o H ~ ~ H ~ ~ 9.X o X X X H H H f f f f f f f f X X t t H g X o ",
"x.9.~ X 9.x.o ~ ].~ H H -.H H ~ -.~ H ~ ~ H H H o H X X H H ~ ~ ~ H -.~ H ~ X 9.H % X X X H H X . f f f f   f f t t f X % o H X ",
"~ H ~ ~ X H H o 9.-.-.H 9.~ 9.o ~ R H x.9.X o X H H 9.~ X o H 9.~ H H o H 9.~ ~ X H X X H X X X f . . % f f f f X X X t f y o f ",
"E.H g ~ -.o o H ~ ~ ~ x.x.g H H H H H ~ 9.-.o R y H H c o H ~ W ~ ~ 9.H o R H H X % % f X X X X o X X o X X ~ o h X h h t t X h ",
"-.H g ~ -.g o ~ o o H 9.-.-.x.E.~ o H ~ ~ H o R % % o H o R H H W X X o f H H . X % f X X o X X . H o X X o X X X h h X h X f   ",
"-.-.g j x.x.o o H H H S.-.9.~ ~ H X ~ x.H H % o R H % o H X H X H X H X % % H X . f X .   X % X . X o X X X X X X X h h r r f r ",
"j ~ -.-.x.S.~ ~ 9.X H X o ~ 9.E.~ H X H H X o o o c o o H o o H H H H H X H H X X f . X   % f % o X H X X H g o t X X h f f r f ",
"H o H ~ ~ H H H -.H H ~ H ~ x.~ H H H H X H H X o % o % o H H H H H H H X W X X o X   f f t o X X X X o X o X o r f o f f o r   ",
"~ x.H H ~ ~ H o o 9.X H 9.H H H o o % H H o H H o % % o X H X H H X X H X H H X % % . f X . X X X X X X t h o ~ r r f o r f r r ",
"~ ~ o H H H H o X H X X -.H o H H X X o o H H X o X o H H 9.o X X H X X X o X H f f . . X X t X X H X H X g h f r r r r o o o o ",
"R H ~ X H H W X H ~ 9.H H H x.9.X X X H W o H o % H H X H H ~ X c H 9.H 9.~ 9.H f f f f X f X o f X X o t j h o o o o f h o r r ",
"o o H H o o 9.H X 9.H X X 9.H o o % X X H H -.H f X o X H o ~ H H X X H X H X H o f f f . X f % . % f f o X ~ o % o o o o o f o ",
"o -.o y o g ~ H o o H H X H X X o % % o o H o H o H X H X H H H W ~ 9.9.X X X H X X   X . f f . X % f f H X H H % o o o H o o y ",
"H ~ X o g g j o o X X X f % o H % % H o X H H y H X X o o H W H H % X ~ W X X ~ X % f   X f .   X   f   X o X o o R R o -.-.o o ",
"H o H o X t t y c H X H f o H X H o % y X H -.H o H H X H 9.~ ~ o % H ~ H H H o f f t f X f f X t t   X o H ~ -.R R -.j j o % o ",
"o R o H o X f f % H f % X t o o . % f % c H o % o X H H o 9.H X R X R % ~ X 9.H % f X f X . X X X X X o o o H o o o R j -.j j o ",
"o H o H f f . f o o . f % % % f % X o % H o X H X H % H H H H H H o H % X H H ~ % t f . f f f X X X g X o 9.H H -.-.y j j y ~ ~ ",
"H X X H f f   f % % f f f f o % o X X o o o o o 9.X o W o -.o o H H H o H X o o f   f . f f % H X t X o o H H ~ -.j j -.j t -.-.",
"o o H X f f . f f f f f f f f f o % H H H o % H -.o ~ ~ ~ 9.H H W H H H W H H % f f f f X f f X t X X X o X g o o y -.j j j j j ",
"% % H X f f % X f f o % f f f f % f t y o o o X X H H 9.x.~ ~ ~ ~ 9.9.9.H H o o X X o X % % H X X o X o t -.O.j -.j o o g -.o g ",
"H o o o f o % o f f o % o % f f % f % y o o H X o o o X H ~ ~ -.E H 9.X H ~ W x.o % H o X o X X X X ~ o t y -.-.j -.o y y ~ y -.",
"o H X o y t % y f H f f t y f % H % o H o X H o H X H H o ~ l.~ x.H H H 9.~ -.o H H H o o H o X o o X X t o R -.g -.E.l.j -.t h ",
"% o o t o o o ~ o y X o X y % f X o H H X o % o H H ~ H H x.-.-.H o H H H ~ H ~ ~ H H o o H H o ~ X o o o o R R o -.-.j y ~ g j ",
"y o H o g o o ~ -.y o H o t o g o o ~ R X o o o 9.-.-.H -.g o -.9.o ~ -.H H o x.-.R R R ~ H o % H o H o o o o o -.g x.-.~ -.o o ",
"R -.o R y y R y ~ R % H g g X X H o H o H X o H -.R o o -.o -.-.x.H ~ -.% H H H R -.o H x.H H H H H R H o -.H H -.j -.x.E.-.-.o ",
"-.-.o o R j H o o H H ~ o o g t f o H ~ H X o o -.j ~ 9.g -.l.l.E.H x.H -.-.9.~ 9.-.f H H H x.~ H o H H x.-.~ ~ o E.x./.H R -.-.",
"-.R R H o o H x.o ~ ~ ~ g j -.t f o -.H H ~ o o y -.-.x.-.-.x.E.9.H H x.x.R H x.x.H o x.9.W x.x.H 9.x.R x.R x..X-.l.E.E.x.].E.^."
};
